<?xml version="1.0" encoding="utf-8"?>
<!-- Generator: Adobe Illustrator 24.0.2, SVG Export Plug-In . SVG Version: 6.00 Build 0)  -->
<svg version="1.1" id="Logo" xmlns="http://www.w3.org/2000/svg" xmlns:xlink="http://www.w3.org/1999/xlink" x="0px" y="0px"
	 viewBox="0 0 2000 2000" style="enable-background:new 0 0 2000 2000;" xml:space="preserve">
<style type="text/css">
	.st0{fill:#FFFFFF;}
</style>
<title>wt-Plan de travail 1</title>
<path id="book_vctor" class="st0" d="M1971.8,1003.8v30.2c-26.1,24.4-52.3,48.5-78.1,73.2c-153.8,146.9-307.5,294-461.1,441.2
	c-130.6,125.8-261.2,251.7-389.1,380.1c-37.8,37.9-74.4,41.1-118.4,20.3c-130.7-61.9-260.8-124.9-391.9-185.9
	c-102.6-47.7-207.5-90.6-309.1-140.4c-70.1-34.4-145.1-69-159.7-159.7c-7.1-44-9.3-88.8-13.3-133.2c-6.7-75.7-15.4-151.3-18.9-227.2
	c-3.2-68.8-7.6-138.8,1.1-206.7c9-69.9,34.5-136.5,93.6-184.5c66.7-54.1,131-111.3,197.4-165.9C469.6,425.9,614.2,305.6,761.6,189
	C830,134.9,904.5,88.4,976.2,38.5h20.1c24.5,5.9,50.7,8.1,73.2,18.2c237.8,107.2,475.2,215.3,712.2,324.2c44,20.2,55.7,55.1,23,89.6
	c-64.1,67.7-133.2,130.9-202.7,193.3c-146.7,131.9-295,261.9-442.4,393c-67,59.5-131.8,121.6-201.3,178c-16.1,13.1-51,17.4-70.5,9.5
	c-101.6-41.5-201.6-87.2-301.2-133.4c-137.1-63.7-273.3-129.1-411.3-194.5c-4.4,10.3-12.9,20.6-12.6,30.7
	c1.8,52.8,3.4,105.9,9.8,158.3c5.8,47.7,27.1,87.9,75,108.3c34.7,14.8,69.6,29.2,103.4,45.7c185.9,91,371.4,182.5,556.8,274.6
	c26.6,13.3,45.4,9.7,65.5-9.1c99.1-92.8,199.4-184.3,297.6-278c176.5-168.4,351.7-338.1,527.8-506.9c28-26.9,57-52.9,87.9-76.4
	c8.5-6.5,30.1-7.9,37.3-1.8c25.5,21.6,23,80.5-1.6,104.3c-97.1,94-193.6,188.6-291.8,281.4c-73.6,69.6-150.8,135.4-224,205.4
	c-129.8,124.2-258.9,249.1-385.7,376.3c-37.5,37.6-71.5,43.8-118.5,21.3c-182.1-87.3-365.1-172.8-548.1-258.3
	c-51.6-24.2-104.3-45.8-158.4-69.3c-1.3,128.2,10.7,161.2,115,207.8c82.4,36.8,164.6,74.2,245.7,113.7
	c121,59,241.3,119.5,361.3,180.6c35.5,18.1,61.7,16.9,92.3-14c90.9-91.8,185-180.4,278.7-269.4c109.2-103.8,219-207,329.3-309.7
	c87.6-81.8,175.1-163.8,264.3-243.9C1938.7,937.5,1940,939,1971.8,1003.8z"/>
<path id="Orna_O_logo" d="M1328.3,665.9c-5,20.9-8.3,42.3-15.3,62.5c-32.3,93.3-97.3,158.1-187.8,192.3
	C999.7,968.2,871.8,970.6,746,918c-135-56.5-209.6-171.2-198.2-326C558,453.7,663.4,350,774,322.9c1.7-0.4,3.7,0.4,10,1.1
	c-48.8,44.3-71.7,99.6-82.6,160.3c-23.5,130.7-21.5,258.4,69.8,365.7c45.4,53.4,110.3,77.1,180.7,71.1
	c119.4-10,191.4-82.9,218.2-193.3c24.3-100,19.9-201.3-33-295.7c-57.8-103.1-202.8-127.6-279.5-44.8c-39,42.1-44.3,94-35,151.7
	c-8.6-20.5-39.9-101.4-1.7-167.9c52.6-91.6,197.9-88,277-62.6c60.4,19.3,104.1,58.3,117.4,70.4c15.5,14.1,43.4,41.9,67.2,83.1
	C1330.2,544.5,1330.7,627,1328.3,665.9z"/>
</svg>
